# xmcd CD database file
# Copyright (C) 1997 Ti Kan
# 
# Track frame offsets:
#     183
#     16813
#     32423
#     43968
#     59338
#     73728
#     89635
#     102690
#     116410
#     133220
#     150843
#     166208
#     182345
#     196808
#     213088
#     229370
# 
# Disc length: 3220 seconds
# 
# Revision: 1
# Processed by: cddbd v1.4b41PL1 Copyright (c) Steve Scherf et al.
# Submitted via: DiscPlay 4.0.4
# 
DISCID=d60c9210
DTITLE=Various Artist - 90's Country
DYEAR=1900
DGENRE=
TTITLE0=If Tomorrow Never Comes (Garth Brooks)
TTITLE1=Shotgun (Tanya Tucker)
TTITLE2=Never Ending Song Of Love (Crystal Gayle)
TTITLE3=On A Good Night (Glen Campbell)
TTITLE4=I'm A Survivor (Lucy J Dalton)
TTITLE5=My Side Of The Story ((Suzy Bogguss)
TTITLE6=The Race Is On (Sawyer Brown)
TTITLE7=On The Bayou (Wild Rose)
TTITLE8=Moonshadow Road (T Graham Brown)
TTITLE9=The Other Side Of Love (Gail Davies)
TTITLE10=Do You Know Where Your Man Is (Barbara Mandrell)
TTITLE11=Good Times (Dan Seals)
TTITLE12=Everything (Cee Cee Chapman)
TTITLE13=What Would You Do About Me (Marie Osmond)
TTITLE14=Country Girl Heart (Larry Gatlin And The Gatlin Brothers)
TTITLE15=Tear It Up (Joni Harms)
EXTD=
EXTT0=
EXTT1=
EXTT2=
EXTT3=
EXTT4=
EXTT5=
EXTT6=
EXTT7=
EXTT8=
EXTT9=
EXTT10=
EXTT11=
EXTT12=
EXTT13=
EXTT14=
EXTT15=
PLAYORDER=
